<svg id="Capa_1" enable-background="new 0 0 512 512" height="512" viewBox="0 0 512 512" width="512" xmlns="http://www.w3.org/2000/svg"><g><path d="m69.317 291.618v73.052c0 54.982 44.572 99.554 99.554 99.554h174.257c54.982 0 99.554-44.572 99.554-99.554v-73.052z" fill="#0079c1"/><path d="m256 291.618-.001 172.607h87.13c54.982 0 99.554-44.572 99.554-99.554v-73.052h-186.683z" fill="#005284"/><g><g><path d="m256 47.776-256 88.886v90.836l69.317 64.119h373.366l69.317-64.119v-90.836z" fill="#005284"/><path d="m256 47.776v243.841h186.683l69.317-64.119v-90.836z" fill="#1c396c"/></g><g><path d="m135.353 150.486v28.541c0 19.657 15.936 35.593 35.593 35.593h47.102v-64.134z" fill="#cef2fb"/><path d="m376.647 150.486v28.541c0 19.657-15.936 35.593-35.593 35.593h-47.102v-64.134z" fill="#75e1f7"/><circle cx="256" cy="182.553" fill="#ffd92e" r="49.695"/><path d="m256 132.858v99.389c27.446 0 49.695-22.249 49.695-49.695 0-27.445-22.249-49.694-49.695-49.694z" fill="#fcbe00"/></g></g><path d="m69.317 364.67c0 54.982 44.572 99.554 99.554 99.554h174.257c54.982 0 99.554-44.572 99.554-99.554z" fill="#4cb8eb"/><path d="m256 363.925-.001 100.299h87.13c54.982 0 99.554-44.572 99.554-99.554z" fill="#0099e3"/></g></svg>